<svg width="707" height="23" viewBox="0 0 707 23" fill="none" xmlns="http://www.w3.org/2000/svg">
<path opacity="0.8" d="M12.488 14.2504C12.488 14.9721 12.589 15.4628 12.7911 15.7226C13.0076 15.968 13.4045 16.1051 13.9818 16.134C14.054 16.3361 14.0901 16.6464 14.0901 17.0649C13.2241 17.0216 12.3508 17 11.4704 17C10.4601 17 9.58685 17.0216 8.85075 17.0649C8.85075 16.6464 8.88683 16.3361 8.959 16.134C9.53633 16.1051 9.92603 15.968 10.1281 15.7226C10.3446 15.4628 10.4529 14.9721 10.4529 14.2504V6.49975L3.8496 14.4669C3.86403 15.0876 3.9795 15.5134 4.196 15.7443C4.4125 15.9752 4.79498 16.1051 5.34345 16.134C5.41562 16.3361 5.4517 16.6464 5.4517 17.0649C4.5857 17.0216 3.71248 17 2.83205 17C1.82172 17 0.9485 17.0216 0.2124 17.0649C0.2124 16.6464 0.248483 16.3361 0.32065 16.134C0.897983 16.1051 1.28768 15.968 1.48975 15.7226C1.70625 15.4628 1.8145 14.9721 1.8145 14.2504V5.11415C1.8145 4.39248 1.70625 3.90897 1.48975 3.6636C1.28768 3.4038 0.897983 3.25947 0.32065 3.2306C0.248483 3.02853 0.2124 2.71822 0.2124 2.29965C1.00623 2.34295 1.87945 2.3646 2.83205 2.3646C3.71248 2.3646 4.5857 2.34295 5.4517 2.29965C5.4517 2.71822 5.41562 3.02853 5.34345 3.2306C4.76612 3.25947 4.3692 3.4038 4.1527 3.6636C3.95063 3.90897 3.8496 4.39248 3.8496 5.11415V12.8648L10.4529 4.876C10.4384 4.25537 10.3229 3.8368 10.1065 3.6203C9.88995 3.38937 9.50747 3.25947 8.959 3.2306C8.88683 3.02853 8.85075 2.71822 8.85075 2.29965C9.64458 2.34295 10.5178 2.3646 11.4704 2.3646C12.3508 2.3646 13.2241 2.34295 14.0901 2.29965C14.0901 2.71822 14.054 3.02853 13.9818 3.2306C13.4045 3.25947 13.0076 3.4038 12.7911 3.6636C12.589 3.90897 12.488 4.39248 12.488 5.11415V14.2504ZM31.4344 6.8678C31.2901 7.41627 31.2179 8.23897 31.2179 9.3359C30.9437 9.4658 30.5828 9.53075 30.1354 9.53075C30.0921 8.59258 29.8323 7.93587 29.356 7.5606C28.8941 7.1709 28.223 6.97605 27.3426 6.97605C25.8992 6.97605 24.8167 7.37297 24.0951 8.1668C23.3734 8.96063 23.0126 9.93488 23.0126 11.0896C23.0126 11.9988 23.2002 12.8215 23.5755 13.5576C23.9652 14.2793 24.5136 14.8494 25.2209 15.268C25.9425 15.6866 26.7941 15.8958 27.7756 15.8958C28.3673 15.8958 28.9735 15.8309 29.5942 15.701C30.2148 15.5567 30.7849 15.3546 31.3045 15.0948C31.3911 15.167 31.4705 15.2752 31.5427 15.4195C31.6148 15.5494 31.6581 15.6721 31.6726 15.7876C30.8643 16.2495 30.0993 16.5959 29.3777 16.8268C28.656 17.0433 27.8405 17.1516 26.9312 17.1516C25.7477 17.1516 24.694 16.9134 23.7703 16.4371C22.8466 15.9608 22.1249 15.2969 21.6053 14.4453C21.0857 13.5937 20.8259 12.6195 20.8259 11.5225C20.8259 10.3534 21.1218 9.35755 21.7136 8.53485C22.3053 7.69772 23.0847 7.06987 24.0518 6.6513C25.0332 6.23273 26.0869 6.02345 27.2127 6.02345C27.9776 6.02345 28.6921 6.09562 29.356 6.23995C30.0199 6.36985 30.7127 6.57913 31.4344 6.8678ZM40.7102 11.1328C41.8505 11.205 42.7526 11.472 43.4165 11.9339C44.0949 12.3813 44.434 13.0453 44.434 13.9257C44.434 14.8639 44.0371 15.6144 43.2433 16.1773C42.4639 16.7258 41.2876 17 39.7143 17C37.5926 17 35.8246 17.0144 34.4101 17.0433C34.4101 16.5959 34.4462 16.2711 34.5183 16.069C34.8647 16.0402 35.1318 15.9824 35.3194 15.8958C35.507 15.8092 35.6369 15.6505 35.7091 15.4195C35.7957 15.1886 35.839 14.8422 35.839 14.3803V8.6864C35.839 8.26783 35.7957 7.9503 35.7091 7.7338C35.6369 7.5173 35.507 7.36575 35.3194 7.27915C35.1462 7.19255 34.8792 7.13482 34.5183 7.10595C34.4606 6.87502 34.4317 6.55027 34.4317 6.1317C35.0957 6.16057 35.7524 6.175 36.4019 6.175L38.004 6.15335C38.3071 6.13892 38.6968 6.1317 39.1731 6.1317C40.5154 6.1317 41.569 6.32655 42.334 6.71625C43.099 7.10595 43.4814 7.71215 43.4814 8.53485C43.4814 9.21322 43.2289 9.79055 42.7237 10.2668C42.233 10.7431 41.5618 11.0318 40.7102 11.1328ZM41.3597 9.0328C41.3597 7.74823 40.4793 7.10595 38.7184 7.10595C38.4153 7.10595 38.1195 7.13482 37.8308 7.19255V10.873H38.437C39.5195 10.873 40.2772 10.7143 40.7102 10.3967C41.1432 10.0792 41.3597 9.62457 41.3597 9.0328ZM39.4112 16.0474C41.2587 16.0474 42.1824 15.4195 42.1824 14.1638C42.1824 12.6628 40.8762 11.9122 38.2638 11.9122H37.8308V14.4453C37.8308 15.0948 37.939 15.5278 38.1555 15.7443C38.372 15.9464 38.7906 16.0474 39.4112 16.0474ZM53.944 11.436C57.2492 11.436 58.9018 12.338 58.9018 14.1422C58.9018 15.0226 58.5338 15.7226 57.7977 16.2423C57.0616 16.7474 55.8925 17 54.2904 17C52.1254 17 50.3501 17.0144 48.9645 17.0433C48.9645 16.6103 48.9933 16.2855 49.0511 16.069C49.4119 16.0402 49.6861 15.9824 49.8738 15.8958C50.0614 15.8092 50.1913 15.6505 50.2635 15.4195C50.3501 15.1886 50.3934 14.8422 50.3934 14.3803V8.8596H50.2635C49.715 8.8596 49.2964 8.93177 49.0078 9.0761C48.7335 9.206 48.5315 9.40085 48.4016 9.66065C48.2861 9.92045 48.1779 10.2957 48.0768 10.7865C48.0191 10.8009 47.9181 10.8081 47.7737 10.8081C47.4562 10.8081 47.2108 10.7504 47.0376 10.6349C47.2253 9.5091 47.3191 8.58537 47.3191 7.8637C48.3294 7.89257 49.3542 7.907 50.3934 7.907V7.6905C50.3934 7.24307 50.2996 6.94718 50.1119 6.80285C49.9387 6.64408 49.5923 6.55027 49.0727 6.5214C49.0006 6.23273 48.9645 5.90798 48.9645 5.54715C49.9171 5.59045 50.7253 5.6121 51.3893 5.6121C52.1542 5.6121 52.9553 5.59045 53.7924 5.54715C53.7924 5.96572 53.7563 6.29047 53.6842 6.5214C53.2079 6.55027 52.8687 6.64408 52.6666 6.80285C52.479 6.96162 52.3852 7.26472 52.3852 7.71215V7.907C54.3625 7.907 55.6904 7.89257 56.3688 7.8637L56.3471 8.4699C56.3471 8.9895 56.3976 9.65343 56.4987 10.4617C56.2389 10.5772 55.9719 10.6349 55.6976 10.6349L55.4162 10.6132C55.3873 10.0215 55.2141 9.58127 54.8966 9.2926C54.5935 9.00393 54.11 8.8596 53.446 8.8596H52.3852V11.5009C52.8903 11.4576 53.4099 11.436 53.944 11.436ZM53.9656 16.0474C54.8894 16.0474 55.5605 15.9103 55.9791 15.6361C56.3976 15.3474 56.6069 14.9216 56.6069 14.3587C56.6069 13.7092 56.2894 13.2329 55.6543 12.9298C55.0193 12.6267 54.2976 12.4751 53.4893 12.4751C53.2728 12.4751 52.9048 12.4896 52.3852 12.5184V14.4453C52.3852 14.9072 52.4285 15.2536 52.5151 15.4845C52.6161 15.701 52.7749 15.8525 52.9914 15.9391C53.2079 16.0113 53.5326 16.0474 53.9656 16.0474ZM70.7046 6.1317C70.6613 6.9111 70.7118 7.84927 70.8562 8.9462C70.5531 9.0761 70.1995 9.14105 69.7953 9.14105C69.7665 8.44825 69.5788 7.93587 69.2324 7.6039C68.9005 7.27193 68.3736 7.10595 67.652 7.10595H66.6994V14.5319C66.6994 14.9793 66.7355 15.3113 66.8076 15.5278C66.8942 15.7299 67.0386 15.8742 67.2406 15.9608C67.4571 16.0474 67.7819 16.1051 68.2149 16.134C68.287 16.3072 68.3231 16.6103 68.3231 17.0433C67.2551 17.0144 66.3818 17 65.7035 17C64.8663 17 63.9715 17.0144 63.0189 17.0433C63.0189 16.6103 63.055 16.3072 63.1271 16.134C63.5601 16.1051 63.8849 16.0474 64.1014 15.9608C64.3323 15.8742 64.4911 15.7226 64.5777 15.5061C64.6643 15.2896 64.7076 14.9649 64.7076 14.5319V7.10595H63.8199C63.2426 7.10595 62.7952 7.18533 62.4776 7.3441C62.1745 7.48843 61.9508 7.69772 61.8065 7.97195C61.6621 8.24618 61.5395 8.63588 61.4384 9.14105C60.9766 9.14105 60.6374 9.0761 60.4209 8.9462C60.6374 7.96473 60.7456 7.02657 60.7456 6.1317C61.4962 6.16057 63.1488 6.175 65.7035 6.175C68.3015 6.175 69.9685 6.16057 70.7046 6.1317ZM80.4091 10.5699C81.8524 10.5699 82.9566 10.8225 83.7215 11.3277C84.4865 11.8329 84.869 12.6411 84.869 13.7525C84.869 14.7484 84.537 15.5422 83.8731 16.134C83.2091 16.7113 82.1844 17 80.7988 17C78.6771 17 76.909 17.0144 75.4945 17.0433C75.4945 16.5959 75.5306 16.2711 75.6028 16.069C75.9492 16.0402 76.2162 15.9824 76.4038 15.8958C76.5915 15.8092 76.7214 15.6505 76.7935 15.4195C76.8801 15.1886 76.9234 14.8422 76.9234 14.3803V7.10595H76.209C75.6461 7.10595 75.2059 7.18533 74.8883 7.3441C74.5852 7.48843 74.3615 7.69772 74.2172 7.97195C74.0728 8.24618 73.9502 8.63588 73.8491 9.14105C73.3873 9.14105 73.0481 9.0761 72.8316 8.9462C73.0481 7.96473 73.1563 7.02657 73.1563 6.1317C73.7914 6.16057 75.1481 6.175 77.2265 6.175C78.7998 6.175 79.9761 6.16057 80.7555 6.1317C80.7555 6.55027 80.7194 6.87502 80.6472 7.10595C80.0122 7.13482 79.5647 7.27915 79.3049 7.53895C79.0451 7.79875 78.9152 8.26783 78.9152 8.9462V10.6349C79.3915 10.5916 79.8895 10.5699 80.4091 10.5699ZM80.6472 16.0474C81.2967 16.0474 81.7875 15.867 82.1194 15.5061C82.4514 15.1453 82.6174 14.6401 82.6174 13.9906C82.6174 13.4277 82.4803 12.9659 82.206 12.605C81.9462 12.2442 81.6215 11.9916 81.2318 11.8473C80.8565 11.6885 80.4885 11.6091 80.1276 11.6091L78.9152 11.6524V14.4453C78.9152 14.9072 78.9657 15.2536 79.0668 15.4845C79.1678 15.701 79.3338 15.8525 79.5647 15.9391C79.8101 16.0113 80.1709 16.0474 80.6472 16.0474ZM98.7678 11.1328C99.908 11.205 100.81 11.472 101.474 11.9339C102.152 12.3813 102.492 13.0453 102.492 13.9257C102.492 14.8639 102.095 15.6144 101.301 16.1773C100.521 16.7258 99.3451 17 97.7719 17C95.6502 17 93.8821 17.0144 92.4676 17.0433C92.4676 16.5959 92.5037 16.2711 92.5759 16.069C92.9223 16.0402 93.1893 15.9824 93.3769 15.8958C93.5646 15.8092 93.6945 15.6505 93.7666 15.4195C93.8532 15.1886 93.8965 14.8422 93.8965 14.3803V8.6864C93.8965 8.26783 93.8532 7.9503 93.7666 7.7338C93.6945 7.5173 93.5646 7.36575 93.3769 7.27915C93.2037 7.19255 92.9367 7.13482 92.5759 7.10595C92.5181 6.87502 92.4893 6.55027 92.4893 6.1317C93.1532 6.16057 93.8099 6.175 94.4594 6.175L96.0615 6.15335C96.3646 6.13892 96.7543 6.1317 97.2306 6.1317C98.5729 6.1317 99.6266 6.32655 100.392 6.71625C101.156 7.10595 101.539 7.71215 101.539 8.53485C101.539 9.21322 101.286 9.79055 100.781 10.2668C100.29 10.7431 99.6193 11.0318 98.7678 11.1328ZM99.4173 9.0328C99.4173 7.74823 98.5368 7.10595 96.776 7.10595C96.4729 7.10595 96.177 7.13482 95.8883 7.19255V10.873H96.4945C97.577 10.873 98.3348 10.7143 98.7678 10.3967C99.2008 10.0792 99.4173 9.62457 99.4173 9.0328ZM97.4688 16.0474C99.3162 16.0474 100.24 15.4195 100.24 14.1638C100.24 12.6628 98.9338 11.9122 96.3213 11.9122H95.8883V14.4453C95.8883 15.0948 95.9966 15.5278 96.2131 15.7443C96.4296 15.9464 96.8481 16.0474 97.4688 16.0474ZM111.612 17.1949C110.371 17.1949 109.274 16.9639 108.321 16.502C107.368 16.0402 106.625 15.3907 106.091 14.5535C105.571 13.7164 105.312 12.7422 105.312 11.6308C105.312 10.5339 105.571 9.55962 106.091 8.70805C106.625 7.85648 107.368 7.19977 108.321 6.7379C109.288 6.2616 110.399 6.02345 111.655 6.02345C112.896 6.02345 113.993 6.25438 114.946 6.71625C115.898 7.17812 116.635 7.83483 117.154 8.6864C117.688 9.52353 117.955 10.4906 117.955 11.5875C117.955 12.6989 117.688 13.6803 117.154 14.5319C116.635 15.369 115.891 16.0257 114.924 16.502C113.972 16.9639 112.867 17.1949 111.612 17.1949ZM111.915 16.199C113.084 16.199 114.008 15.8092 114.686 15.0298C115.379 14.2504 115.725 13.2112 115.725 11.9122C115.725 10.9741 115.538 10.1369 115.162 9.40085C114.787 8.65032 114.26 8.06577 113.582 7.6472C112.918 7.22863 112.167 7.01935 111.33 7.01935C110.161 7.01935 109.238 7.41627 108.559 8.2101C107.881 8.9895 107.542 10.0215 107.542 11.306C107.542 12.2731 107.729 13.1319 108.104 13.8824C108.48 14.6185 108.999 15.1886 109.663 15.5927C110.327 15.9969 111.078 16.199 111.915 16.199ZM134.745 6.1317C134.702 6.9111 134.753 7.84927 134.897 8.9462C134.594 9.0761 134.24 9.14105 133.836 9.14105C133.807 8.44825 133.62 7.93587 133.273 7.6039C132.941 7.27193 132.415 7.10595 131.693 7.10595H130.74V14.5319C130.74 14.9793 130.776 15.3113 130.848 15.5278C130.935 15.7299 131.079 15.8742 131.281 15.9608C131.498 16.0474 131.823 16.1051 132.256 16.134C132.328 16.3072 132.364 16.6103 132.364 17.0433C131.296 17.0144 130.423 17 129.744 17C128.907 17 128.012 17.0144 127.06 17.0433C127.06 16.6103 127.096 16.3072 127.168 16.134C127.601 16.1051 127.926 16.0474 128.142 15.9608C128.373 15.8742 128.532 15.7226 128.619 15.5061C128.705 15.2896 128.748 14.9649 128.748 14.5319V7.10595H127.861C127.283 7.10595 126.836 7.18533 126.518 7.3441C126.215 7.48843 125.992 7.69772 125.847 7.97195C125.703 8.24618 125.58 8.63588 125.479 9.14105C125.017 9.14105 124.678 9.0761 124.462 8.9462C124.678 7.96473 124.786 7.02657 124.786 6.1317C125.537 6.16057 127.19 6.175 129.744 6.175C132.342 6.175 134.009 6.16057 134.745 6.1317ZM142.393 10.7865C144.053 10.7865 145.316 11.0318 146.182 11.5225C147.048 11.9988 147.481 12.771 147.481 13.8391C147.481 14.8061 147.106 15.5783 146.355 16.1556C145.605 16.7185 144.45 17 142.891 17C140.741 17 138.958 17.0144 137.544 17.0433C137.544 16.5959 137.58 16.2711 137.652 16.069C137.998 16.0402 138.265 15.9824 138.453 15.8958C138.641 15.8092 138.77 15.6505 138.843 15.4195C138.929 15.1886 138.972 14.8422 138.972 14.3803V8.6864C138.972 8.26783 138.929 7.9503 138.843 7.7338C138.77 7.5173 138.641 7.36575 138.453 7.27915C138.28 7.19255 138.02 7.13482 137.673 7.10595C137.601 6.88945 137.565 6.5647 137.565 6.1317C138.316 6.16057 139.218 6.175 140.271 6.175C141.152 6.175 141.996 6.16057 142.805 6.1317C142.805 6.55027 142.768 6.87502 142.696 7.10595C142.061 7.13482 141.614 7.27915 141.354 7.53895C141.094 7.79875 140.964 8.26783 140.964 8.9462V10.8514C141.455 10.8081 141.931 10.7865 142.393 10.7865ZM142.523 16.0474C144.298 16.0474 145.186 15.4123 145.186 14.1422C145.186 13.3195 144.869 12.7277 144.233 12.3669C143.613 12.0061 142.862 11.8256 141.982 11.8256C141.765 11.8256 141.426 11.8401 140.964 11.8689V14.4453C140.964 15.0948 141.073 15.5278 141.289 15.7443C141.506 15.9464 141.917 16.0474 142.523 16.0474ZM166.389 16.134C166.461 16.3649 166.497 16.668 166.497 17.0433C165.718 17.0144 164.91 17 164.072 17C163.322 17 162.528 17.0144 161.691 17.0433C161.691 16.7546 161.727 16.4515 161.799 16.134C162.276 16.0907 162.6 16.0041 162.773 15.8742C162.947 15.7299 163.033 15.4628 163.033 15.0732C163.033 14.9721 163.004 14.6618 162.947 14.1422L162.276 8.9895L158.422 16.7185C158.191 16.8051 157.909 16.8484 157.577 16.8484L153.572 9.0328L152.966 13.6009C152.923 13.9906 152.901 14.3226 152.901 14.5968C152.901 15.1597 152.995 15.5494 153.183 15.7659C153.385 15.9824 153.724 16.1051 154.2 16.134C154.272 16.3649 154.308 16.668 154.308 17.0433C153.529 17.0144 152.843 17 152.252 17C151.616 17 150.967 17.0144 150.303 17.0433C150.303 16.668 150.339 16.3649 150.411 16.134C150.758 16.1051 151.025 16.0185 151.212 15.8742C151.414 15.7299 151.566 15.4845 151.667 15.1381C151.782 14.7773 151.876 14.2504 151.948 13.5576L152.555 8.79465C152.569 8.69362 152.576 8.54928 152.576 8.36165C152.576 7.87092 152.475 7.53895 152.273 7.36575C152.086 7.19255 151.754 7.10595 151.277 7.10595C151.205 6.84615 151.169 6.5214 151.169 6.1317C151.718 6.16057 152.244 6.175 152.75 6.175C153.154 6.175 153.673 6.16057 154.308 6.1317L158.53 14.2504L162.535 6.1317C163.17 6.16057 163.712 6.175 164.159 6.175C164.505 6.175 165.025 6.16057 165.718 6.1317C165.718 6.55027 165.682 6.87502 165.61 7.10595C165.177 7.10595 164.852 7.20698 164.635 7.40905C164.419 7.59668 164.311 7.92143 164.311 8.3833C164.311 8.57093 164.318 8.72248 164.332 8.83795L165.003 13.9473C165.09 14.568 165.177 15.0226 165.263 15.3113C165.364 15.6 165.494 15.802 165.653 15.9175C165.826 16.033 166.071 16.1051 166.389 16.134ZM175.577 11.436C178.882 11.436 180.535 12.338 180.535 14.1422C180.535 15.0226 180.167 15.7226 179.431 16.2423C178.695 16.7474 177.526 17 175.924 17C173.759 17 171.983 17.0144 170.598 17.0433C170.598 16.6103 170.627 16.2855 170.684 16.069C171.045 16.0402 171.319 15.9824 171.507 15.8958C171.695 15.8092 171.825 15.6505 171.897 15.4195C171.983 15.1886 172.027 14.8422 172.027 14.3803V8.8596H171.897C171.348 8.8596 170.93 8.93177 170.641 9.0761C170.367 9.206 170.165 9.40085 170.035 9.66065C169.919 9.92045 169.811 10.2957 169.71 10.7865C169.652 10.8009 169.551 10.8081 169.407 10.8081C169.089 10.8081 168.844 10.7504 168.671 10.6349C168.859 9.5091 168.952 8.58537 168.952 7.8637C169.963 7.89257 170.987 7.907 172.027 7.907V7.6905C172.027 7.24307 171.933 6.94718 171.745 6.80285C171.572 6.64408 171.226 6.55027 170.706 6.5214C170.634 6.23273 170.598 5.90798 170.598 5.54715C171.55 5.59045 172.359 5.6121 173.023 5.6121C173.787 5.6121 174.589 5.59045 175.426 5.54715C175.426 5.96572 175.39 6.29047 175.317 6.5214C174.841 6.55027 174.502 6.64408 174.3 6.80285C174.112 6.96162 174.018 7.26472 174.018 7.71215V7.907C175.996 7.907 177.324 7.89257 178.002 7.8637L177.98 8.4699C177.98 8.9895 178.031 9.65343 178.132 10.4617C177.872 10.5772 177.605 10.6349 177.331 10.6349L177.049 10.6132C177.021 10.0215 176.847 9.58127 176.53 9.2926C176.227 9.00393 175.743 8.8596 175.079 8.8596H174.018V11.5009C174.524 11.4576 175.043 11.436 175.577 11.436ZM175.599 16.0474C176.523 16.0474 177.194 15.9103 177.612 15.6361C178.031 15.3474 178.24 14.9216 178.24 14.3587C178.24 13.7092 177.923 13.2329 177.288 12.9298C176.653 12.6267 175.931 12.4751 175.123 12.4751C174.906 12.4751 174.538 12.4896 174.018 12.5184V14.4453C174.018 14.9072 174.062 15.2536 174.148 15.4845C174.249 15.701 174.408 15.8525 174.625 15.9391C174.841 16.0113 175.166 16.0474 175.599 16.0474ZM198.292 6.8678C198.147 7.41627 198.075 8.23897 198.075 9.3359C197.801 9.4658 197.44 9.53075 196.993 9.53075C196.949 8.59258 196.69 7.93587 196.213 7.5606C195.751 7.1709 195.08 6.97605 194.2 6.97605C192.756 6.97605 191.674 7.37297 190.952 8.1668C190.231 8.96063 189.87 9.93488 189.87 11.0896C189.87 11.9988 190.057 12.8215 190.433 13.5576C190.822 14.2793 191.371 14.8494 192.078 15.268C192.8 15.6866 193.651 15.8958 194.633 15.8958C195.225 15.8958 195.831 15.8309 196.451 15.701C197.072 15.5567 197.642 15.3546 198.162 15.0948C198.248 15.167 198.328 15.2752 198.4 15.4195C198.472 15.5494 198.515 15.6721 198.53 15.7876C197.722 16.2495 196.957 16.5959 196.235 16.8268C195.513 17.0433 194.698 17.1516 193.788 17.1516C192.605 17.1516 191.551 16.9134 190.628 16.4371C189.704 15.9608 188.982 15.2969 188.463 14.4453C187.943 13.5937 187.683 12.6195 187.683 11.5225C187.683 10.3534 187.979 9.35755 188.571 8.53485C189.163 7.69772 189.942 7.06987 190.909 6.6513C191.89 6.23273 192.944 6.02345 194.07 6.02345C194.835 6.02345 195.549 6.09562 196.213 6.23995C196.877 6.36985 197.57 6.57913 198.292 6.8678ZM207.567 11.1328C208.708 11.205 209.61 11.472 210.274 11.9339C210.952 12.3813 211.291 13.0453 211.291 13.9257C211.291 14.8639 210.894 15.6144 210.101 16.1773C209.321 16.7258 208.145 17 206.572 17C204.45 17 202.682 17.0144 201.267 17.0433C201.267 16.5959 201.303 16.2711 201.376 16.069C201.722 16.0402 201.989 15.9824 202.177 15.8958C202.364 15.8092 202.494 15.6505 202.566 15.4195C202.653 15.1886 202.696 14.8422 202.696 14.3803V8.6864C202.696 8.26783 202.653 7.9503 202.566 7.7338C202.494 7.5173 202.364 7.36575 202.177 7.27915C202.003 7.19255 201.736 7.13482 201.376 7.10595C201.318 6.87502 201.289 6.55027 201.289 6.1317C201.953 6.16057 202.61 6.175 203.259 6.175L204.861 6.15335C205.164 6.13892 205.554 6.1317 206.03 6.1317C207.373 6.1317 208.426 6.32655 209.191 6.71625C209.956 7.10595 210.339 7.71215 210.339 8.53485C210.339 9.21322 210.086 9.79055 209.581 10.2668C209.09 10.7431 208.419 11.0318 207.567 11.1328ZM208.217 9.0328C208.217 7.74823 207.337 7.10595 205.576 7.10595C205.273 7.10595 204.977 7.13482 204.688 7.19255V10.873H205.294C206.377 10.873 207.134 10.7143 207.567 10.3967C208 10.0792 208.217 9.62457 208.217 9.0328ZM206.268 16.0474C208.116 16.0474 209.04 15.4195 209.04 14.1638C209.04 12.6628 207.733 11.9122 205.121 11.9122H204.688V14.4453C204.688 15.0948 204.796 15.5278 205.013 15.7443C205.229 15.9464 205.648 16.0474 206.268 16.0474ZM220.801 11.436C224.106 11.436 225.759 12.338 225.759 14.1422C225.759 15.0226 225.391 15.7226 224.655 16.2423C223.919 16.7474 222.75 17 221.148 17C218.983 17 217.207 17.0144 215.822 17.0433C215.822 16.6103 215.851 16.2855 215.908 16.069C216.269 16.0402 216.543 15.9824 216.731 15.8958C216.919 15.8092 217.049 15.6505 217.121 15.4195C217.207 15.1886 217.251 14.8422 217.251 14.3803V8.8596H217.121C216.572 8.8596 216.154 8.93177 215.865 9.0761C215.591 9.206 215.389 9.40085 215.259 9.66065C215.143 9.92045 215.035 10.2957 214.934 10.7865C214.876 10.8009 214.775 10.8081 214.631 10.8081C214.313 10.8081 214.068 10.7504 213.895 10.6349C214.082 9.5091 214.176 8.58537 214.176 7.8637C215.187 7.89257 216.211 7.907 217.251 7.907V7.6905C217.251 7.24307 217.157 6.94718 216.969 6.80285C216.796 6.64408 216.45 6.55027 215.93 6.5214C215.858 6.23273 215.822 5.90798 215.822 5.54715C216.774 5.59045 217.583 5.6121 218.247 5.6121C219.011 5.6121 219.813 5.59045 220.65 5.54715C220.65 5.96572 220.614 6.29047 220.541 6.5214C220.065 6.55027 219.726 6.64408 219.524 6.80285C219.336 6.96162 219.242 7.26472 219.242 7.71215V7.907C221.22 7.907 222.548 7.89257 223.226 7.8637L223.204 8.4699C223.204 8.9895 223.255 9.65343 223.356 10.4617C223.096 10.5772 222.829 10.6349 222.555 10.6349L222.273 10.6132C222.245 10.0215 222.071 9.58127 221.754 9.2926C221.451 9.00393 220.967 8.8596 220.303 8.8596H219.242V11.5009C219.748 11.4576 220.267 11.436 220.801 11.436ZM220.823 16.0474C221.747 16.0474 222.418 15.9103 222.836 15.6361C223.255 15.3474 223.464 14.9216 223.464 14.3587C223.464 13.7092 223.147 13.2329 222.512 12.9298C221.876 12.6267 221.155 12.4751 220.347 12.4751C220.13 12.4751 219.762 12.4896 219.242 12.5184V14.4453C219.242 14.9072 219.286 15.2536 219.372 15.4845C219.473 15.701 219.632 15.8525 219.849 15.9391C220.065 16.0113 220.39 16.0474 220.823 16.0474ZM237.562 6.1317C237.519 6.9111 237.569 7.84927 237.713 8.9462C237.41 9.0761 237.057 9.14105 236.653 9.14105C236.624 8.44825 236.436 7.93587 236.09 7.6039C235.758 7.27193 235.231 7.10595 234.509 7.10595H233.557V14.5319C233.557 14.9793 233.593 15.3113 233.665 15.5278C233.751 15.7299 233.896 15.8742 234.098 15.9608C234.314 16.0474 234.639 16.1051 235.072 16.134C235.144 16.3072 235.18 16.6103 235.18 17.0433C234.112 17.0144 233.239 17 232.561 17C231.724 17 230.829 17.0144 229.876 17.0433C229.876 16.6103 229.912 16.3072 229.984 16.134C230.417 16.1051 230.742 16.0474 230.959 15.9608C231.19 15.8742 231.348 15.7226 231.435 15.5061C231.521 15.2896 231.565 14.9649 231.565 14.5319V7.10595H230.677C230.1 7.10595 229.652 7.18533 229.335 7.3441C229.032 7.48843 228.808 7.69772 228.664 7.97195C228.519 8.24618 228.397 8.63588 228.296 9.14105C227.834 9.14105 227.495 9.0761 227.278 8.9462C227.495 7.96473 227.603 7.02657 227.603 6.1317C228.353 6.16057 230.006 6.175 232.561 6.175C235.159 6.175 236.826 6.16057 237.562 6.1317ZM251.358 14.5319C251.358 15.1525 251.445 15.5711 251.618 15.7876C251.806 15.9897 252.152 16.1051 252.657 16.134C252.729 16.3072 252.765 16.6103 252.765 17.0433C251.784 17.0144 250.99 17 250.384 17C249.662 17 248.854 17.0144 247.959 17.0433C247.959 16.6103 247.995 16.3072 248.067 16.134C248.573 16.1051 248.912 15.9897 249.085 15.7876C249.273 15.5711 249.366 15.1525 249.366 14.5319V9.31425L243.802 15.1598C243.846 15.5206 243.961 15.7659 244.149 15.8958C244.336 16.0257 244.647 16.1051 245.08 16.134C245.137 16.3216 245.166 16.6247 245.166 17.0433C244.185 17.0144 243.391 17 242.785 17C242.063 17 241.255 17.0144 240.36 17.0433C240.36 16.6103 240.396 16.3072 240.468 16.134C240.829 16.1051 241.096 16.0474 241.269 15.9608C241.457 15.8742 241.587 15.7226 241.659 15.5061C241.731 15.2896 241.767 14.9649 241.767 14.5319V8.62145C241.767 8.20288 241.731 7.88535 241.659 7.66885C241.587 7.45235 241.457 7.3008 241.269 7.2142C241.096 7.1276 240.829 7.06987 240.468 7.041C240.396 6.83893 240.36 6.53583 240.36 6.1317C241.284 6.16057 242.092 6.175 242.785 6.175C243.362 6.175 244.156 6.16057 245.166 6.1317C245.166 6.55027 245.137 6.85337 245.08 7.041C244.56 7.06987 244.206 7.18533 244.019 7.3874C243.846 7.58947 243.759 8.00082 243.759 8.62145V13.8175L249.323 8.0369C249.28 7.67607 249.164 7.4307 248.977 7.3008C248.789 7.15647 248.479 7.06987 248.046 7.041C247.988 6.8245 247.959 6.5214 247.959 6.1317C248.883 6.16057 249.684 6.175 250.362 6.175C250.954 6.175 251.755 6.16057 252.765 6.1317C252.765 6.50697 252.729 6.81007 252.657 7.041C252.138 7.06987 251.791 7.18533 251.618 7.3874C251.445 7.58947 251.358 8.00082 251.358 8.62145V14.5319ZM265.66 6.1317C265.617 6.9111 265.668 7.84927 265.812 8.9462C265.509 9.0761 265.155 9.14105 264.751 9.14105C264.722 8.44825 264.535 7.93587 264.188 7.6039C263.856 7.27193 263.329 7.10595 262.608 7.10595H261.655V14.5319C261.655 14.9793 261.691 15.3113 261.763 15.5278C261.85 15.7299 261.994 15.8742 262.196 15.9608C262.413 16.0474 262.738 16.1051 263.171 16.134C263.243 16.3072 263.279 16.6103 263.279 17.0433C262.211 17.0144 261.338 17 260.659 17C259.822 17 258.927 17.0144 257.975 17.0433C257.975 16.6103 258.011 16.3072 258.083 16.134C258.516 16.1051 258.841 16.0474 259.057 15.9608C259.288 15.8742 259.447 15.7226 259.533 15.5061C259.62 15.2896 259.663 14.9649 259.663 14.5319V7.10595H258.776C258.198 7.10595 257.751 7.18533 257.433 7.3441C257.13 7.48843 256.907 7.69772 256.762 7.97195C256.618 8.24618 256.495 8.63588 256.394 9.14105C255.932 9.14105 255.593 9.0761 255.377 8.9462C255.593 7.96473 255.701 7.02657 255.701 6.1317C256.452 6.16057 258.104 6.175 260.659 6.175C263.257 6.175 264.924 6.16057 265.66 6.1317ZM275.365 10.5699C276.808 10.5699 277.912 10.8225 278.677 11.3277C279.442 11.8329 279.825 12.6411 279.825 13.7525C279.825 14.7484 279.493 15.5422 278.829 16.134C278.165 16.7113 277.14 17 275.754 17C273.633 17 271.865 17.0144 270.45 17.0433C270.45 16.5959 270.486 16.2711 270.558 16.069C270.905 16.0402 271.172 15.9824 271.36 15.8958C271.547 15.8092 271.677 15.6505 271.749 15.4195C271.836 15.1886 271.879 14.8422 271.879 14.3803V7.10595H271.165C270.602 7.10595 270.162 7.18533 269.844 7.3441C269.541 7.48843 269.317 7.69772 269.173 7.97195C269.029 8.24618 268.906 8.63588 268.805 9.14105C268.343 9.14105 268.004 9.0761 267.787 8.9462C268.004 7.96473 268.112 7.02657 268.112 6.1317C268.747 6.16057 270.104 6.175 272.182 6.175C273.755 6.175 274.932 6.16057 275.711 6.1317C275.711 6.55027 275.675 6.87502 275.603 7.10595C274.968 7.13482 274.52 7.27915 274.261 7.53895C274.001 7.79875 273.871 8.26783 273.871 8.9462V10.6349C274.347 10.5916 274.845 10.5699 275.365 10.5699ZM275.603 16.0474C276.252 16.0474 276.743 15.867 277.075 15.5061C277.407 15.1453 277.573 14.6401 277.573 13.9906C277.573 13.4277 277.436 12.9659 277.162 12.605C276.902 12.2442 276.577 11.9916 276.187 11.8473C275.812 11.6885 275.444 11.6091 275.083 11.6091L273.871 11.6524V14.4453C273.871 14.9072 273.921 15.2536 274.022 15.4845C274.124 15.701 274.289 15.8525 274.52 15.9391C274.766 16.0113 275.127 16.0474 275.603 16.0474ZM285.752 16.4588C285.752 17.2526 285.536 18.0464 285.103 18.8402C284.67 19.6341 284.114 20.3557 283.435 21.0052C283.306 21.0052 283.176 20.9764 283.046 20.9187C282.916 20.8609 282.815 20.7815 282.743 20.6805C283.176 20.1898 283.515 19.699 283.76 19.2083C284.006 18.732 284.128 18.3062 284.128 17.931C284.128 17.2959 283.789 16.935 283.111 16.8484C283.111 16.6752 283.125 16.4587 283.154 16.199C283.183 15.9247 283.226 15.7082 283.284 15.5494C283.977 15.4051 284.554 15.1886 285.016 14.8999C285.507 15.0876 285.752 15.6072 285.752 16.4588ZM304.024 14.5319C304.024 15.1525 304.111 15.5711 304.284 15.7876C304.472 15.9897 304.818 16.1051 305.323 16.134C305.395 16.3072 305.432 16.6103 305.432 17.0433C304.45 17.0144 303.656 17 303.05 17C302.328 17 301.52 17.0144 300.625 17.0433C300.625 16.6103 300.661 16.3072 300.734 16.134C301.239 16.1051 301.578 15.9897 301.751 15.7876C301.939 15.5711 302.033 15.1525 302.033 14.5319V9.31425L296.468 15.1598C296.512 15.5206 296.627 15.7659 296.815 15.8958C297.002 16.0257 297.313 16.1051 297.746 16.134C297.804 16.3216 297.832 16.6247 297.832 17.0433C296.851 17.0144 296.057 17 295.451 17C294.729 17 293.921 17.0144 293.026 17.0433C293.026 16.6103 293.062 16.3072 293.134 16.134C293.495 16.1051 293.762 16.0474 293.935 15.9608C294.123 15.8742 294.253 15.7226 294.325 15.5061C294.397 15.2896 294.433 14.9649 294.433 14.5319V8.62145C294.433 8.20288 294.397 7.88535 294.325 7.66885C294.253 7.45235 294.123 7.3008 293.935 7.2142C293.762 7.1276 293.495 7.06987 293.134 7.041C293.062 6.83893 293.026 6.53583 293.026 6.1317C293.95 6.16057 294.758 6.175 295.451 6.175C296.028 6.175 296.822 6.16057 297.832 6.1317C297.832 6.55027 297.804 6.85337 297.746 7.041C297.226 7.06987 296.873 7.18533 296.685 7.3874C296.512 7.58947 296.425 8.00082 296.425 8.62145V13.8175L301.989 8.0369C301.946 7.67607 301.83 7.4307 301.643 7.3008C301.455 7.15647 301.145 7.06987 300.712 7.041C300.654 6.8245 300.625 6.5214 300.625 6.1317C301.549 6.16057 302.35 6.175 303.028 6.175C303.62 6.175 304.421 6.16057 305.432 6.1317C305.432 6.50697 305.395 6.81007 305.323 7.041C304.804 7.06987 304.457 7.18533 304.284 7.3874C304.111 7.58947 304.024 8.00082 304.024 8.62145V14.5319ZM322.661 6.1317C322.617 6.9111 322.668 7.84927 322.812 8.9462C322.509 9.0761 322.156 9.14105 321.751 9.14105C321.723 8.44825 321.535 7.93587 321.189 7.6039C320.857 7.27193 320.33 7.10595 319.608 7.10595H318.655V14.5319C318.655 14.9793 318.692 15.3113 318.764 15.5278C318.85 15.7299 318.995 15.8742 319.197 15.9608C319.413 16.0474 319.738 16.1051 320.171 16.134C320.243 16.3072 320.279 16.6103 320.279 17.0433C319.211 17.0144 318.338 17 317.66 17C316.822 17 315.928 17.0144 314.975 17.0433C314.975 16.6103 315.011 16.3072 315.083 16.134C315.516 16.1051 315.841 16.0474 316.057 15.9608C316.288 15.8742 316.447 15.7226 316.534 15.5061C316.62 15.2896 316.664 14.9649 316.664 14.5319V7.10595H315.776C315.199 7.10595 314.751 7.18533 314.434 7.3441C314.131 7.48843 313.907 7.69772 313.763 7.97195C313.618 8.24618 313.496 8.63588 313.395 9.14105C312.933 9.14105 312.593 9.0761 312.377 8.9462C312.593 7.96473 312.702 7.02657 312.702 6.1317C313.452 6.16057 315.105 6.175 317.66 6.175C320.258 6.175 321.925 6.16057 322.661 6.1317ZM330.308 10.7865C331.968 10.7865 333.231 11.0318 334.097 11.5225C334.963 11.9988 335.396 12.771 335.396 13.8391C335.396 14.8061 335.021 15.5783 334.27 16.1556C333.52 16.7185 332.365 17 330.806 17C328.656 17 326.873 17.0144 325.459 17.0433C325.459 16.5959 325.495 16.2711 325.567 16.069C325.913 16.0402 326.18 15.9824 326.368 15.8958C326.556 15.8092 326.686 15.6505 326.758 15.4195C326.844 15.1886 326.888 14.8422 326.888 14.3803V8.6864C326.888 8.26783 326.844 7.9503 326.758 7.7338C326.686 7.5173 326.556 7.36575 326.368 7.27915C326.195 7.19255 325.935 7.13482 325.589 7.10595C325.517 6.88945 325.48 6.5647 325.48 6.1317C326.231 6.16057 327.133 6.175 328.187 6.175C329.067 6.175 329.911 6.16057 330.72 6.1317C330.72 6.55027 330.684 6.87502 330.612 7.10595C329.976 7.13482 329.529 7.27915 329.269 7.53895C329.009 7.79875 328.88 8.26783 328.88 8.9462V10.8514C329.37 10.8081 329.847 10.7865 330.308 10.7865ZM330.438 16.0474C332.214 16.0474 333.101 15.4123 333.101 14.1422C333.101 13.3195 332.784 12.7277 332.149 12.3669C331.528 12.0061 330.777 11.8256 329.897 11.8256C329.681 11.8256 329.341 11.8401 328.88 11.8689V14.4453C328.88 15.0948 328.988 15.5278 329.204 15.7443C329.421 15.9464 329.832 16.0474 330.438 16.0474ZM354.304 16.134C354.376 16.3649 354.412 16.668 354.412 17.0433C353.633 17.0144 352.825 17 351.988 17C351.237 17 350.443 17.0144 349.606 17.0433C349.606 16.7546 349.642 16.4515 349.714 16.134C350.191 16.0907 350.515 16.0041 350.689 15.8742C350.862 15.7299 350.948 15.4628 350.948 15.0732C350.948 14.9721 350.92 14.6618 350.862 14.1422L350.191 8.9895L346.337 16.7185C346.106 16.8051 345.825 16.8484 345.493 16.8484L341.487 9.0328L340.881 13.6009C340.838 13.9906 340.816 14.3226 340.816 14.5968C340.816 15.1597 340.91 15.5494 341.098 15.7659C341.3 15.9824 341.639 16.1051 342.115 16.134C342.187 16.3649 342.224 16.668 342.224 17.0433C341.444 17.0144 340.759 17 340.167 17C339.532 17 338.882 17.0144 338.218 17.0433C338.218 16.668 338.254 16.3649 338.327 16.134C338.673 16.1051 338.94 16.0185 339.128 15.8742C339.33 15.7299 339.481 15.4845 339.582 15.1381C339.698 14.7773 339.792 14.2504 339.864 13.5576L340.47 8.79465C340.484 8.69362 340.492 8.54928 340.492 8.36165C340.492 7.87092 340.39 7.53895 340.188 7.36575C340.001 7.19255 339.669 7.10595 339.193 7.10595C339.12 6.84615 339.084 6.5214 339.084 6.1317C339.633 6.16057 340.16 6.175 340.665 6.175C341.069 6.175 341.588 6.16057 342.224 6.1317L346.445 14.2504L350.451 6.1317C351.086 6.16057 351.627 6.175 352.074 6.175C352.421 6.175 352.94 6.16057 353.633 6.1317C353.633 6.55027 353.597 6.87502 353.525 7.10595C353.092 7.10595 352.767 7.20698 352.551 7.40905C352.334 7.59668 352.226 7.92143 352.226 8.3833C352.226 8.57093 352.233 8.72248 352.247 8.83795L352.919 13.9473C353.005 14.568 353.092 15.0226 353.178 15.3113C353.279 15.6 353.409 15.802 353.568 15.9175C353.741 16.033 353.987 16.1051 354.304 16.134ZM368.299 16.069C368.371 16.2855 368.407 16.6103 368.407 17.0433C367.83 17.0144 367.086 17 366.177 17C365.224 17 364.459 17.0144 363.882 17.0433C363.882 16.5959 363.925 16.2711 364.012 16.069C364.344 16.0257 364.575 15.968 364.705 15.8958C364.849 15.8092 364.921 15.6866 364.921 15.5278C364.921 15.3979 364.849 15.1742 364.705 14.8566L364.272 13.9257C362.193 13.9257 360.555 13.9618 359.357 14.0339L359.119 14.5968C358.975 14.9288 358.903 15.1886 358.903 15.3762C358.903 15.7804 359.199 16.0113 359.79 16.069C359.877 16.3288 359.92 16.6536 359.92 17.0433C359.372 17.0144 358.773 17 358.123 17C357.56 17 357.048 17.0144 356.586 17.0433C356.586 16.6969 356.629 16.3721 356.716 16.069C357.034 16.0113 357.279 15.8814 357.452 15.6793C357.625 15.4628 357.856 15.0371 358.145 14.402L361.869 6.15335C362.143 6.09562 362.432 6.06675 362.735 6.06675L366.718 14.337C367.036 15.001 367.303 15.4484 367.519 15.6793C367.75 15.9103 368.01 16.0402 368.299 16.069ZM363.839 13.038L362.54 10.3101C362.165 9.54518 361.905 8.93898 361.76 8.49155C361.645 8.85238 361.501 9.21322 361.327 9.57405C361.169 9.92045 361.068 10.1369 361.024 10.2235L359.79 13.038H363.839ZM386.354 14.5319C386.354 15.1525 386.44 15.5711 386.613 15.7876C386.801 15.9897 387.147 16.1051 387.653 16.134C387.725 16.3072 387.761 16.6103 387.761 17.0433C386.779 17.0144 385.985 17 385.379 17C384.658 17 383.849 17.0144 382.954 17.0433C382.954 16.6103 382.991 16.3072 383.063 16.134C383.568 16.1051 383.907 15.9897 384.08 15.7876C384.268 15.5711 384.362 15.1525 384.362 14.5319V11.8906C381.591 11.8906 379.721 11.9267 378.754 11.9988V14.5319C378.754 15.1525 378.841 15.5711 379.014 15.7876C379.202 15.9897 379.555 16.1051 380.075 16.134C380.133 16.3216 380.162 16.6247 380.162 17.0433C379.18 17.0144 378.386 17 377.78 17C377.058 17 376.25 17.0144 375.355 17.0433C375.355 16.6103 375.391 16.3072 375.464 16.134C375.824 16.1051 376.091 16.0474 376.265 15.9608C376.452 15.8742 376.582 15.7226 376.654 15.5061C376.726 15.2896 376.763 14.9649 376.763 14.5319V8.62145C376.763 8.20288 376.726 7.88535 376.654 7.66885C376.582 7.45235 376.452 7.3008 376.265 7.2142C376.091 7.1276 375.824 7.06987 375.464 7.041C375.391 6.83893 375.355 6.53583 375.355 6.1317C376.279 6.16057 377.087 6.175 377.78 6.175C378.357 6.175 379.151 6.16057 380.162 6.1317C380.162 6.55027 380.133 6.85337 380.075 7.041C379.555 7.06987 379.202 7.18533 379.014 7.3874C378.841 7.58947 378.754 8.00082 378.754 8.62145V10.938H384.362V8.62145C384.362 8.20288 384.318 7.88535 384.232 7.66885C384.16 7.45235 384.03 7.3008 383.842 7.2142C383.669 7.1276 383.402 7.06987 383.041 7.041C382.983 6.8245 382.954 6.5214 382.954 6.1317C383.878 6.16057 384.679 6.175 385.358 6.175C385.949 6.175 386.75 6.16057 387.761 6.1317C387.761 6.50697 387.725 6.81007 387.653 7.041C387.133 7.06987 386.787 7.18533 386.613 7.3874C386.44 7.58947 386.354 8.00082 386.354 8.62145V14.5319ZM399.876 13.9257C400.266 13.9979 400.584 14.1566 400.829 14.402C400.569 15.0804 400.374 15.9536 400.244 17.0217L396.066 17C393.988 17 392.313 17.0144 391.043 17.0433C391.043 16.5959 391.079 16.2711 391.151 16.069C391.512 16.0402 391.779 15.9824 391.952 15.8958C392.14 15.8092 392.27 15.6505 392.342 15.4195C392.414 15.1886 392.45 14.8422 392.45 14.3803V8.6864C392.45 8.26783 392.407 7.9503 392.32 7.7338C392.248 7.5173 392.118 7.36575 391.931 7.27915C391.758 7.19255 391.498 7.13482 391.151 7.10595C391.079 6.88945 391.043 6.5647 391.043 6.1317C392.082 6.16057 393.215 6.175 394.442 6.175C397.098 6.175 398.873 6.16057 399.768 6.1317C399.927 7.48843 400.064 8.3833 400.179 8.8163C399.934 8.97507 399.609 9.05445 399.205 9.05445C399.147 8.44825 398.895 7.97195 398.447 7.62555C398.014 7.27915 397.242 7.10595 396.131 7.10595H394.442V11.0896H395.525C396.29 11.0896 396.816 11.0029 397.105 10.8297C397.408 10.6565 397.567 10.339 397.581 9.87715C397.899 9.77612 398.231 9.7256 398.577 9.7256C398.548 10.0864 398.534 10.6926 398.534 11.5442C398.534 12.4679 398.548 13.0958 398.577 13.4277C398.188 13.4277 397.87 13.3844 397.625 13.2978C397.581 12.8215 397.408 12.4968 397.105 12.3236C396.816 12.1504 396.29 12.0638 395.525 12.0638H394.442V14.337C394.442 14.7989 394.485 15.1525 394.572 15.3979C394.673 15.6288 394.839 15.7948 395.07 15.8958C395.315 15.9824 395.676 16.0257 396.153 16.0257H396.282C397.12 16.0257 397.762 15.9536 398.209 15.8092C398.671 15.6649 399.01 15.4556 399.227 15.1814C399.458 14.8927 399.674 14.4742 399.876 13.9257ZM413.972 17.1949C412.731 17.1949 411.634 16.9639 410.681 16.502C409.728 16.0402 408.985 15.3907 408.451 14.5535C407.931 13.7164 407.672 12.7422 407.672 11.6308C407.672 10.5339 407.931 9.55962 408.451 8.70805C408.985 7.85648 409.728 7.19977 410.681 6.7379C411.648 6.2616 412.759 6.02345 414.015 6.02345C415.256 6.02345 416.353 6.25438 417.306 6.71625C418.258 7.17812 418.995 7.83483 419.514 8.6864C420.048 9.52353 420.315 10.4906 420.315 11.5875C420.315 12.6989 420.048 13.6803 419.514 14.5319C418.995 15.369 418.251 16.0257 417.284 16.502C416.332 16.9639 415.227 17.1949 413.972 17.1949ZM414.275 16.199C415.444 16.199 416.368 15.8092 417.046 15.0298C417.739 14.2504 418.085 13.2112 418.085 11.9122C418.085 10.9741 417.898 10.1369 417.522 9.40085C417.147 8.65032 416.62 8.06577 415.942 7.6472C415.278 7.22863 414.527 7.01935 413.69 7.01935C412.521 7.01935 411.598 7.41627 410.919 8.2101C410.241 8.9895 409.902 10.0215 409.902 11.306C409.902 12.2731 410.089 13.1319 410.464 13.8824C410.84 14.6185 411.359 15.1886 412.023 15.5927C412.687 15.9969 413.438 16.199 414.275 16.199ZM428.073 10.7865C431.35 10.7865 432.988 11.8112 432.988 13.8607C432.988 14.8278 432.62 15.5927 431.884 16.1556C431.148 16.7185 430.007 17 428.463 17C426.341 17 424.573 17.0144 423.159 17.0433C423.159 16.5959 423.195 16.2711 423.267 16.069C423.613 16.0402 423.88 15.9824 424.068 15.8958C424.256 15.8092 424.386 15.6505 424.458 15.4195C424.544 15.1886 424.588 14.8422 424.588 14.3803V8.6864C424.588 8.26783 424.544 7.9503 424.458 7.7338C424.386 7.5173 424.256 7.36575 424.068 7.27915C423.895 7.19255 423.635 7.13482 423.289 7.10595C423.216 6.88945 423.18 6.5647 423.18 6.1317C423.96 6.16057 425.078 6.175 426.536 6.175C429.105 6.175 430.852 6.16057 431.775 6.1317C431.934 7.48843 432.071 8.3833 432.187 8.8163C431.941 8.97507 431.617 9.05445 431.212 9.05445C431.155 8.44825 430.902 7.97195 430.455 7.62555C430.022 7.27915 429.25 7.10595 428.138 7.10595H426.579V10.8514C427.056 10.8081 427.554 10.7865 428.073 10.7865ZM428.311 16.0474C429.12 16.0474 429.726 15.8814 430.13 15.5494C430.534 15.203 430.736 14.7195 430.736 14.0989C430.736 13.3195 430.426 12.7494 429.805 12.3885C429.185 12.0133 428.513 11.8256 427.792 11.8256L426.579 11.8689V14.4453C426.579 14.9072 426.63 15.2536 426.731 15.4845C426.832 15.701 426.998 15.8525 427.229 15.9391C427.474 16.0113 427.835 16.0474 428.311 16.0474ZM443.173 10.5699C444.617 10.5699 445.721 10.8225 446.486 11.3277C447.251 11.8329 447.633 12.6411 447.633 13.7525C447.633 14.7484 447.301 15.5422 446.637 16.134C445.973 16.7113 444.949 17 443.563 17C441.441 17 439.673 17.0144 438.259 17.0433C438.259 16.5959 438.295 16.2711 438.367 16.069C438.714 16.0402 438.981 15.9824 439.168 15.8958C439.356 15.8092 439.486 15.6505 439.558 15.4195C439.644 15.1886 439.688 14.8422 439.688 14.3803V7.10595H438.973C438.41 7.10595 437.97 7.18533 437.653 7.3441C437.35 7.48843 437.126 7.69772 436.982 7.97195C436.837 8.24618 436.715 8.63588 436.613 9.14105C436.152 9.14105 435.812 9.0761 435.596 8.9462C435.812 7.96473 435.921 7.02657 435.921 6.1317C436.556 6.16057 437.912 6.175 439.991 6.175C441.564 6.175 442.74 6.16057 443.52 6.1317C443.52 6.55027 443.484 6.87502 443.412 7.10595C442.777 7.13482 442.329 7.27915 442.069 7.53895C441.809 7.79875 441.68 8.26783 441.68 8.9462V10.6349C442.156 10.5916 442.654 10.5699 443.173 10.5699ZM443.412 16.0474C444.061 16.0474 444.552 15.867 444.884 15.5061C445.216 15.1453 445.382 14.6401 445.382 13.9906C445.382 13.4277 445.245 12.9659 444.97 12.605C444.711 12.2442 444.386 11.9916 443.996 11.8473C443.621 11.6885 443.253 11.6091 442.892 11.6091L441.68 11.6524V14.4453C441.68 14.9072 441.73 15.2536 441.831 15.4845C441.932 15.701 442.098 15.8525 442.329 15.9391C442.574 16.0113 442.935 16.0474 443.412 16.0474ZM459.06 14.5968C459.06 15.203 459.146 15.6072 459.32 15.8092C459.493 15.9969 459.839 16.1051 460.359 16.134C460.417 16.3649 460.445 16.6753 460.445 17.0649C459.839 17.0216 459.053 17 458.086 17C457.003 17 456.195 17.0216 455.661 17.0649C455.661 16.6175 455.697 16.3072 455.769 16.134C456.087 16.1196 456.325 16.0763 456.483 16.0041C456.657 15.9175 456.779 15.7659 456.851 15.5494C456.924 15.3185 456.96 14.9793 456.96 14.5319V12.7133C456.195 12.7133 455.61 12.8143 455.206 13.0164C454.802 13.2185 454.528 13.4711 454.383 13.7741C454.239 14.0628 454.102 14.4742 453.972 15.0082C453.842 15.5855 453.705 16.033 453.561 16.3505C453.431 16.6536 453.214 16.9206 452.911 17.1516C452.175 17.0505 451.295 17 450.27 17C450.198 16.7835 450.162 16.4732 450.162 16.069C450.537 16.0402 450.833 15.9464 451.049 15.7876C451.266 15.6288 451.432 15.4484 451.547 15.2464C451.663 15.0299 451.793 14.7268 451.937 14.337C452.067 13.9907 452.197 13.7092 452.327 13.4927C452.457 13.2762 452.659 13.0741 452.933 12.8865C453.222 12.6989 453.604 12.5545 454.08 12.4535C453.084 12.2803 452.319 11.9195 451.785 11.371C451.251 10.8081 450.984 10.1009 450.984 9.2493C450.984 8.2967 451.345 7.53895 452.067 6.97605C452.803 6.39872 453.965 6.11005 455.552 6.11005L456.635 6.1317C457.241 6.16057 457.775 6.175 458.237 6.175C459.132 6.175 459.868 6.16057 460.445 6.1317C460.445 6.50697 460.417 6.81728 460.359 7.06265C459.839 7.09152 459.493 7.20698 459.32 7.40905C459.146 7.59668 459.06 7.9936 459.06 8.5998V14.5968ZM456.18 11.7823C456.541 11.7823 456.801 11.7607 456.96 11.7174V7.1709C456.469 7.0843 456.014 7.041 455.596 7.041C454.715 7.041 454.088 7.22863 453.712 7.6039C453.337 7.96473 453.149 8.47712 453.149 9.14105C453.149 10.0215 453.431 10.6854 453.994 11.1328C454.557 11.5658 455.285 11.7823 456.18 11.7823ZM464.381 17.1516C464.107 17.1516 463.847 17.1083 463.601 17.0217C463.356 16.9495 463.183 16.8629 463.082 16.7618C463.024 16.5742 462.995 16.3288 462.995 16.0257C462.995 15.5494 463.053 15.1525 463.168 14.835C463.457 14.9072 463.76 14.9432 464.078 14.9432C464.684 14.9432 465.153 14.7123 465.485 14.2504C465.817 13.7741 466.055 13.1102 466.199 12.2586C466.344 11.3926 466.459 10.2091 466.546 8.70805L466.567 8.18845C466.567 7.89978 466.531 7.6905 466.459 7.5606C466.387 7.41627 466.25 7.31523 466.048 7.2575C465.86 7.18533 465.55 7.13482 465.117 7.10595C465.059 6.87502 465.03 6.55027 465.03 6.1317C466.127 6.16057 467.715 6.175 469.793 6.175C471.713 6.175 473.178 6.16057 474.188 6.1317C474.188 6.57913 474.159 6.90388 474.102 7.10595C473.582 7.13482 473.228 7.25028 473.041 7.45235C472.868 7.65442 472.781 8.06577 472.781 8.6864V14.4669C472.781 15.0876 472.868 15.5061 473.041 15.7226C473.228 15.9247 473.582 16.0402 474.102 16.069C474.159 16.2855 474.188 16.6103 474.188 17.0433C473.207 17.0144 472.42 17 471.828 17C471.092 17 470.277 17.0144 469.382 17.0433C469.382 16.5959 469.418 16.2711 469.49 16.069C469.851 16.0402 470.118 15.9824 470.291 15.8958C470.479 15.8092 470.609 15.6577 470.681 15.4412C470.753 15.2247 470.789 14.8999 470.789 14.4669V8.6864C470.789 8.19567 470.76 7.84927 470.703 7.6472C470.645 7.44513 470.522 7.30802 470.335 7.23585C470.06 7.12038 469.642 7.06265 469.079 7.06265C468.66 7.06265 468.292 7.12038 467.975 7.23585C467.787 7.30802 467.664 7.4307 467.607 7.6039C467.549 7.7771 467.506 8.13793 467.477 8.6864C467.39 10.3895 467.26 11.8257 467.087 12.9948C466.914 14.1639 466.611 15.1525 466.178 15.9608C465.759 16.7546 465.16 17.1516 464.381 17.1516ZM488.515 16.069C488.588 16.2855 488.624 16.6103 488.624 17.0433C488.046 17.0144 487.303 17 486.394 17C485.441 17 484.676 17.0144 484.099 17.0433C484.099 16.5959 484.142 16.2711 484.229 16.069C484.561 16.0257 484.792 15.968 484.922 15.8958C485.066 15.8092 485.138 15.6866 485.138 15.5278C485.138 15.3979 485.066 15.1742 484.922 14.8566L484.489 13.9257C482.41 13.9257 480.772 13.9618 479.574 14.0339L479.336 14.5968C479.192 14.9288 479.119 15.1886 479.119 15.3762C479.119 15.7804 479.415 16.0113 480.007 16.069C480.094 16.3288 480.137 16.6536 480.137 17.0433C479.588 17.0144 478.989 17 478.34 17C477.777 17 477.265 17.0144 476.803 17.0433C476.803 16.6969 476.846 16.3721 476.933 16.069C477.25 16.0113 477.496 15.8814 477.669 15.6793C477.842 15.4628 478.073 15.0371 478.362 14.402L482.085 6.15335C482.36 6.09562 482.648 6.06675 482.951 6.06675L486.935 14.337C487.253 15.001 487.52 15.4484 487.736 15.6793C487.967 15.9103 488.227 16.0402 488.515 16.069ZM484.056 13.038L482.757 10.3101C482.381 9.54518 482.121 8.93898 481.977 8.49155C481.862 8.85238 481.717 9.21322 481.544 9.57405C481.385 9.92045 481.284 10.1369 481.241 10.2235L480.007 13.038H484.056ZM504.405 13.9257C504.795 13.9979 505.112 14.1566 505.358 14.402C505.098 15.0804 504.903 15.9536 504.773 17.0217L500.595 17C498.516 17 496.842 17.0144 495.572 17.0433C495.572 16.5959 495.608 16.2711 495.68 16.069C496.041 16.0402 496.308 15.9824 496.481 15.8958C496.669 15.8092 496.799 15.6505 496.871 15.4195C496.943 15.1886 496.979 14.8422 496.979 14.3803V8.6864C496.979 8.26783 496.936 7.9503 496.849 7.7338C496.777 7.5173 496.647 7.36575 496.46 7.27915C496.286 7.19255 496.027 7.13482 495.68 7.10595C495.608 6.88945 495.572 6.5647 495.572 6.1317C496.611 6.16057 497.744 6.175 498.971 6.175C501.627 6.175 503.402 6.16057 504.297 6.1317C504.456 7.48843 504.593 8.3833 504.708 8.8163C504.463 8.97507 504.138 9.05445 503.734 9.05445C503.676 8.44825 503.424 7.97195 502.976 7.62555C502.543 7.27915 501.771 7.10595 500.66 7.10595H498.971V11.0896H500.054C500.819 11.0896 501.345 11.0029 501.634 10.8297C501.937 10.6565 502.096 10.339 502.11 9.87715C502.428 9.77612 502.76 9.7256 503.106 9.7256C503.077 10.0864 503.063 10.6926 503.063 11.5442C503.063 12.4679 503.077 13.0958 503.106 13.4277C502.717 13.4277 502.399 13.3844 502.154 13.2978C502.11 12.8215 501.937 12.4968 501.634 12.3236C501.345 12.1504 500.819 12.0638 500.054 12.0638H498.971V14.337C498.971 14.7989 499.014 15.1525 499.101 15.3979C499.202 15.6288 499.368 15.7948 499.599 15.8958C499.844 15.9824 500.205 16.0257 500.681 16.0257H500.811C501.648 16.0257 502.291 15.9536 502.738 15.8092C503.2 15.6649 503.539 15.4556 503.756 15.1814C503.987 14.8927 504.203 14.4742 504.405 13.9257ZM516.591 6.1317C516.75 7.57503 516.887 8.54207 517.003 9.0328C516.728 9.19157 516.382 9.27095 515.963 9.27095C515.862 8.66475 515.725 8.21732 515.552 7.92865C515.393 7.62555 515.141 7.41627 514.794 7.3008C514.462 7.1709 513.972 7.10595 513.322 7.10595H511.72V14.2938C511.72 14.9721 511.85 15.4412 512.11 15.701C512.37 15.9608 512.817 16.1051 513.452 16.134C513.524 16.3361 513.56 16.6464 513.56 17.0649C512.954 17.0216 512.117 17 511.049 17C509.779 17 508.869 17.0216 508.321 17.0649C508.321 16.6175 508.357 16.3072 508.429 16.134C508.934 16.1051 509.274 15.9897 509.447 15.7876C509.634 15.5711 509.728 15.1525 509.728 14.5319V8.62145C509.728 8.20288 509.692 7.88535 509.62 7.66885C509.548 7.45235 509.418 7.3008 509.23 7.2142C509.057 7.1276 508.79 7.06987 508.429 7.041C508.357 6.83893 508.321 6.53583 508.321 6.1317C509.476 6.16057 510.601 6.175 511.698 6.175C514.094 6.175 515.725 6.16057 516.591 6.1317ZM525.774 17.1949C524.532 17.1949 523.436 16.9639 522.483 16.502C521.53 16.0402 520.787 15.3907 520.253 14.5535C519.733 13.7164 519.474 12.7422 519.474 11.6308C519.474 10.5339 519.733 9.55962 520.253 8.70805C520.787 7.85648 521.53 7.19977 522.483 6.7379C523.45 6.2616 524.561 6.02345 525.817 6.02345C527.058 6.02345 528.155 6.25438 529.108 6.71625C530.06 7.17812 530.797 7.83483 531.316 8.6864C531.85 9.52353 532.117 10.4906 532.117 11.5875C532.117 12.6989 531.85 13.6803 531.316 14.5319C530.797 15.369 530.053 16.0257 529.086 16.502C528.134 16.9639 527.029 17.1949 525.774 17.1949ZM526.077 16.199C527.246 16.199 528.17 15.8092 528.848 15.0298C529.541 14.2504 529.887 13.2112 529.887 11.9122C529.887 10.9741 529.7 10.1369 529.324 9.40085C528.949 8.65032 528.422 8.06577 527.744 7.6472C527.08 7.22863 526.329 7.01935 525.492 7.01935C524.323 7.01935 523.399 7.41627 522.721 8.2101C522.043 8.9895 521.704 10.0215 521.704 11.306C521.704 12.2731 521.891 13.1319 522.266 13.8824C522.642 14.6185 523.161 15.1886 523.825 15.5927C524.489 15.9969 525.24 16.199 526.077 16.199ZM543.062 1.21715C542.052 2.71822 541.33 4.30588 540.897 5.98015C540.464 7.63998 540.247 9.58127 540.247 11.804C540.247 14.0412 540.478 16.0185 540.94 17.7361C541.417 19.4681 542.167 21.1424 543.192 22.7589C543.091 22.8455 542.925 22.8888 542.694 22.8888C542.564 22.8888 542.47 22.8816 542.412 22.8672C541.085 21.1063 540.081 19.331 539.403 17.5412C538.739 15.7515 538.407 13.8391 538.407 11.804C538.407 9.92767 538.71 8.15237 539.317 6.4781C539.923 4.80383 540.919 2.96358 542.304 0.957349C542.477 0.942916 542.607 0.957349 542.694 1.00065C542.795 1.02952 542.918 1.10168 543.062 1.21715ZM551.852 17.1949C550.452 17.1949 549.211 16.8701 548.128 16.2206C547.046 15.5567 546.202 14.6546 545.595 13.5143C545.004 12.3597 544.708 11.0679 544.708 9.639C544.708 8.19567 545.018 6.9111 545.639 5.7853C546.274 4.64507 547.133 3.75742 548.215 3.12235C549.312 2.48728 550.524 2.16975 551.852 2.16975C553.223 2.16975 554.45 2.48728 555.533 3.12235C556.63 3.74298 557.481 4.62342 558.087 5.76365C558.708 6.88945 559.018 8.18123 559.018 9.639C559.018 11.0535 558.708 12.338 558.087 13.4927C557.481 14.6329 556.63 15.535 555.533 16.199C554.45 16.8629 553.223 17.1949 551.852 17.1949ZM552.285 16.134C553.195 16.134 553.988 15.8742 554.667 15.3546C555.36 14.835 555.886 14.1278 556.247 13.2329C556.608 12.3236 556.788 11.3133 556.788 10.2019C556.788 8.91733 556.55 7.74102 556.074 6.67295C555.612 5.60488 554.97 4.76053 554.147 4.1399C553.324 3.51927 552.408 3.20895 551.398 3.20895C550.546 3.20895 549.781 3.45432 549.103 3.94505C548.424 4.43578 547.89 5.12137 547.501 6.0018C547.125 6.88223 546.938 7.89978 546.938 9.05445C546.938 10.2957 547.147 11.4576 547.566 12.5401C547.999 13.6226 548.619 14.4958 549.427 15.1598C550.236 15.8092 551.188 16.134 552.285 16.134ZM571.044 6.1317C571 6.9111 571.051 7.84927 571.195 8.9462C570.892 9.0761 570.539 9.14105 570.134 9.14105C570.106 8.44825 569.918 7.93587 569.572 7.6039C569.24 7.27193 568.713 7.10595 567.991 7.10595H567.038V14.5319C567.038 14.9793 567.075 15.3113 567.147 15.5278C567.233 15.7299 567.378 15.8742 567.58 15.9608C567.796 16.0474 568.121 16.1051 568.554 16.134C568.626 16.3072 568.662 16.6103 568.662 17.0433C567.594 17.0144 566.721 17 566.043 17C565.205 17 564.311 17.0144 563.358 17.0433C563.358 16.6103 563.394 16.3072 563.466 16.134C563.899 16.1051 564.224 16.0474 564.44 15.9608C564.671 15.8742 564.83 15.7226 564.917 15.5061C565.003 15.2896 565.047 14.9649 565.047 14.5319V7.10595H564.159C563.582 7.10595 563.134 7.18533 562.817 7.3441C562.514 7.48843 562.29 7.69772 562.146 7.97195C562.001 8.24618 561.879 8.63588 561.778 9.14105C561.316 9.14105 560.976 9.0761 560.76 8.9462C560.976 7.96473 561.085 7.02657 561.085 6.1317C561.835 6.16057 563.488 6.175 566.043 6.175C568.641 6.175 570.308 6.16057 571.044 6.1317ZM580.748 10.5699C582.191 10.5699 583.296 10.8225 584.061 11.3277C584.826 11.8329 585.208 12.6411 585.208 13.7525C585.208 14.7484 584.876 15.5422 584.212 16.134C583.548 16.7113 582.523 17 581.138 17C579.016 17 577.248 17.0144 575.834 17.0433C575.834 16.5959 575.87 16.2711 575.942 16.069C576.288 16.0402 576.555 15.9824 576.743 15.8958C576.931 15.8092 577.06 15.6505 577.133 15.4195C577.219 15.1886 577.263 14.8422 577.263 14.3803V7.10595H576.548C575.985 7.10595 575.545 7.18533 575.227 7.3441C574.924 7.48843 574.701 7.69772 574.556 7.97195C574.412 8.24618 574.289 8.63588 574.188 9.14105C573.726 9.14105 573.387 9.0761 573.171 8.9462C573.387 7.96473 573.495 7.02657 573.495 6.1317C574.13 6.16057 575.487 6.175 577.566 6.175C579.139 6.175 580.315 6.16057 581.095 6.1317C581.095 6.55027 581.058 6.87502 580.986 7.10595C580.351 7.13482 579.904 7.27915 579.644 7.53895C579.384 7.79875 579.254 8.26783 579.254 8.9462V10.6349C579.731 10.5916 580.229 10.5699 580.748 10.5699ZM580.986 16.0474C581.636 16.0474 582.127 15.867 582.459 15.5061C582.79 15.1453 582.956 14.6401 582.956 13.9906C582.956 13.4277 582.819 12.9659 582.545 12.605C582.285 12.2442 581.961 11.9916 581.571 11.8473C581.196 11.6885 580.828 11.6091 580.467 11.6091L579.254 11.6524V14.4453C579.254 14.9072 579.305 15.2536 579.406 15.4845C579.507 15.701 579.673 15.8525 579.904 15.9391C580.149 16.0113 580.51 16.0474 580.986 16.0474ZM593.976 5.11415C593.976 4.39248 593.868 3.90897 593.651 3.6636C593.449 3.4038 593.059 3.25947 592.482 3.2306C592.41 3.02853 592.374 2.71822 592.374 2.29965C593.168 2.34295 594.041 2.3646 594.993 2.3646C595.874 2.3646 596.747 2.34295 597.613 2.29965C597.613 2.71822 597.577 3.02853 597.505 3.2306C596.927 3.25947 596.531 3.4038 596.314 3.6636C596.112 3.90897 596.011 4.39248 596.011 5.11415V14.2504C596.011 14.9721 596.112 15.4628 596.314 15.7226C596.531 15.968 596.927 16.1051 597.505 16.134C597.577 16.3361 597.613 16.6464 597.613 17.0649C596.747 17.0216 595.874 17 594.993 17C593.983 17 593.11 17.0216 592.374 17.0649C592.374 16.6464 592.41 16.3361 592.482 16.134C593.059 16.1051 593.449 15.968 593.651 15.7226C593.868 15.4628 593.976 14.9721 593.976 14.2504V5.11415ZM606.306 17.1949C605.065 17.1949 603.968 16.9639 603.015 16.502C602.062 16.0402 601.319 15.3907 600.785 14.5535C600.265 13.7164 600.006 12.7422 600.006 11.6308C600.006 10.5339 600.265 9.55962 600.785 8.70805C601.319 7.85648 602.062 7.19977 603.015 6.7379C603.982 6.2616 605.093 6.02345 606.349 6.02345C607.59 6.02345 608.687 6.25438 609.64 6.71625C610.593 7.17812 611.329 7.83483 611.848 8.6864C612.382 9.52353 612.649 10.4906 612.649 11.5875C612.649 12.6989 612.382 13.6803 611.848 14.5319C611.329 15.369 610.585 16.0257 609.618 16.502C608.666 16.9639 607.562 17.1949 606.306 17.1949ZM606.609 16.199C607.778 16.199 608.702 15.8092 609.38 15.0298C610.073 14.2504 610.419 13.2112 610.419 11.9122C610.419 10.9741 610.232 10.1369 609.856 9.40085C609.481 8.65032 608.954 8.06577 608.276 7.6472C607.612 7.22863 606.862 7.01935 606.024 7.01935C604.855 7.01935 603.932 7.41627 603.253 8.2101C602.575 8.9895 602.236 10.0215 602.236 11.306C602.236 12.2731 602.423 13.1319 602.799 13.8824C603.174 14.6185 603.693 15.1886 604.357 15.5927C605.021 15.9969 605.772 16.199 606.609 16.199ZM626.111 16.069C626.184 16.2855 626.22 16.6103 626.22 17.0433C625.642 17.0144 624.899 17 623.99 17C623.037 17 622.272 17.0144 621.695 17.0433C621.695 16.5959 621.738 16.2711 621.825 16.069C622.157 16.0257 622.388 15.968 622.517 15.8958C622.662 15.8092 622.734 15.6866 622.734 15.5278C622.734 15.3979 622.662 15.1742 622.517 14.8566L622.084 13.9257C620.006 13.9257 618.368 13.9618 617.17 14.0339L616.932 14.5968C616.787 14.9288 616.715 15.1886 616.715 15.3762C616.715 15.7804 617.011 16.0113 617.603 16.069C617.689 16.3288 617.733 16.6536 617.733 17.0433C617.184 17.0144 616.585 17 615.936 17C615.373 17 614.861 17.0144 614.399 17.0433C614.399 16.6969 614.442 16.3721 614.529 16.069C614.846 16.0113 615.091 15.8814 615.265 15.6793C615.438 15.4628 615.669 15.0371 615.957 14.402L619.681 6.15335C619.956 6.09562 620.244 6.06675 620.547 6.06675L624.531 14.337C624.848 15.001 625.115 15.4484 625.332 15.6793C625.563 15.9103 625.823 16.0402 626.111 16.069ZM621.651 13.038L620.352 10.3101C619.977 9.54518 619.717 8.93898 619.573 8.49155C619.458 8.85238 619.313 9.21322 619.14 9.57405C618.981 9.92045 618.88 10.1369 618.837 10.2235L617.603 13.038H621.651ZM639.832 14.5319C639.832 15.1525 639.918 15.5711 640.092 15.7876C640.279 15.9897 640.626 16.1051 641.131 16.134C641.203 16.3072 641.239 16.6103 641.239 17.0433C640.258 17.0144 639.464 17 638.858 17C638.136 17 637.328 17.0144 636.433 17.0433C636.433 16.6103 636.469 16.3072 636.541 16.134C637.046 16.1051 637.385 15.9897 637.559 15.7876C637.746 15.5711 637.84 15.1525 637.84 14.5319V11.8906C635.069 11.8906 633.2 11.9267 632.233 11.9988V14.5319C632.233 15.1525 632.319 15.5711 632.493 15.7876C632.68 15.9897 633.034 16.1051 633.553 16.134C633.611 16.3216 633.64 16.6247 633.64 17.0433C632.659 17.0144 631.865 17 631.258 17C630.537 17 629.729 17.0144 628.834 17.0433C628.834 16.6103 628.87 16.3072 628.942 16.134C629.303 16.1051 629.57 16.0474 629.743 15.9608C629.931 15.8742 630.061 15.7226 630.133 15.5061C630.205 15.2896 630.241 14.9649 630.241 14.5319V8.62145C630.241 8.20288 630.205 7.88535 630.133 7.66885C630.061 7.45235 629.931 7.3008 629.743 7.2142C629.57 7.1276 629.303 7.06987 628.942 7.041C628.87 6.83893 628.834 6.53583 628.834 6.1317C629.757 6.16057 630.566 6.175 631.258 6.175C631.836 6.175 632.63 6.16057 633.64 6.1317C633.64 6.55027 633.611 6.85337 633.553 7.041C633.034 7.06987 632.68 7.18533 632.493 7.3874C632.319 7.58947 632.233 8.00082 632.233 8.62145V10.938H637.84V8.62145C637.84 8.20288 637.797 7.88535 637.71 7.66885C637.638 7.45235 637.508 7.3008 637.32 7.2142C637.147 7.1276 636.88 7.06987 636.519 7.041C636.462 6.8245 636.433 6.5214 636.433 6.1317C637.357 6.16057 638.158 6.175 638.836 6.175C639.428 6.175 640.229 6.16057 641.239 6.1317C641.239 6.50697 641.203 6.81007 641.131 7.041C640.611 7.06987 640.265 7.18533 640.092 7.3874C639.918 7.58947 639.832 8.00082 639.832 8.62145V14.5319ZM655.52 14.5319C655.52 15.1525 655.606 15.5711 655.779 15.7876C655.967 15.9897 656.313 16.1051 656.819 16.134C656.891 16.3072 656.927 16.6103 656.927 17.0433C655.945 17.0144 655.152 17 654.545 17C653.824 17 653.015 17.0144 652.121 17.0433C652.121 16.6103 652.157 16.3072 652.229 16.134C652.734 16.1051 653.073 15.9897 653.246 15.7876C653.434 15.5711 653.528 15.1525 653.528 14.5319V11.8906C650.757 11.8906 648.888 11.9267 647.92 11.9988V14.5319C647.92 15.1525 648.007 15.5711 648.18 15.7876C648.368 15.9897 648.722 16.1051 649.241 16.134C649.299 16.3216 649.328 16.6247 649.328 17.0433C648.346 17.0144 647.552 17 646.946 17C646.225 17 645.416 17.0144 644.521 17.0433C644.521 16.6103 644.558 16.3072 644.63 16.134C644.991 16.1051 645.258 16.0474 645.431 15.9608C645.618 15.8742 645.748 15.7226 645.82 15.5061C645.893 15.2896 645.929 14.9649 645.929 14.5319V8.62145C645.929 8.20288 645.893 7.88535 645.82 7.66885C645.748 7.45235 645.618 7.3008 645.431 7.2142C645.258 7.1276 644.991 7.06987 644.63 7.041C644.558 6.83893 644.521 6.53583 644.521 6.1317C645.445 6.16057 646.253 6.175 646.946 6.175C647.524 6.175 648.317 6.16057 649.328 6.1317C649.328 6.55027 649.299 6.85337 649.241 7.041C648.722 7.06987 648.368 7.18533 648.18 7.3874C648.007 7.58947 647.92 8.00082 647.92 8.62145V10.938H653.528V8.62145C653.528 8.20288 653.485 7.88535 653.398 7.66885C653.326 7.45235 653.196 7.3008 653.008 7.2142C652.835 7.1276 652.568 7.06987 652.207 7.041C652.149 6.8245 652.121 6.5214 652.121 6.1317C653.044 6.16057 653.845 6.175 654.524 6.175C655.116 6.175 655.917 6.16057 656.927 6.1317C656.927 6.50697 656.891 6.81007 656.819 7.041C656.299 7.06987 655.953 7.18533 655.779 7.3874C655.606 7.58947 655.52 8.00082 655.52 8.62145V14.5319ZM671.251 16.069C671.323 16.2855 671.359 16.6103 671.359 17.0433C670.782 17.0144 670.038 17 669.129 17C668.176 17 667.411 17.0144 666.834 17.0433C666.834 16.5959 666.877 16.2711 666.964 16.069C667.296 16.0257 667.527 15.968 667.657 15.8958C667.801 15.8092 667.873 15.6866 667.873 15.5278C667.873 15.3979 667.801 15.1742 667.657 14.8566L667.224 13.9257C665.145 13.9257 663.507 13.9618 662.309 14.0339L662.071 14.5968C661.927 14.9288 661.855 15.1886 661.855 15.3762C661.855 15.7804 662.151 16.0113 662.742 16.069C662.829 16.3288 662.872 16.6536 662.872 17.0433C662.324 17.0144 661.725 17 661.075 17C660.512 17 660 17.0144 659.538 17.0433C659.538 16.6969 659.581 16.3721 659.668 16.069C659.986 16.0113 660.231 15.8814 660.404 15.6793C660.577 15.4628 660.808 15.0371 661.097 14.402L664.821 6.15335C665.095 6.09562 665.384 6.06675 665.687 6.06675L669.67 14.337C669.988 15.001 670.255 15.4484 670.471 15.6793C670.702 15.9103 670.962 16.0402 671.251 16.069ZM666.791 13.038L665.492 10.3101C665.117 9.54518 664.857 8.93898 664.712 8.49155C664.597 8.85238 664.453 9.21322 664.279 9.57405C664.121 9.92045 664.02 10.1369 663.976 10.2235L662.742 13.038H666.791ZM680.624 10.0503C680.624 9.41528 680.573 8.96063 680.472 8.6864C680.386 8.41217 680.184 8.21732 679.866 8.10185C679.549 7.98638 679.022 7.92865 678.286 7.92865C678.286 7.59668 678.322 7.32245 678.394 7.10595C679.852 6.86058 681.079 6.50697 682.074 6.0451C682.276 6.11727 682.406 6.23995 682.464 6.41315C682.536 6.57192 682.572 6.81728 682.572 7.14925V13.6875C682.572 14.3659 682.616 14.8783 682.702 15.2247C682.803 15.5567 682.969 15.7876 683.2 15.9175C683.446 16.033 683.806 16.1051 684.283 16.134C684.355 16.3649 684.391 16.6753 684.391 17.0649C683.482 17.0216 682.522 17 681.512 17C680.415 17 679.44 17.0216 678.589 17.0649C678.589 16.6753 678.625 16.3649 678.697 16.134C679.188 16.1051 679.563 16.0257 679.823 15.8958C680.097 15.7659 680.299 15.535 680.429 15.203C680.559 14.8566 680.624 14.3515 680.624 13.6875V10.0503ZM688.54 10.2668C688.15 10.2668 687.847 10.1658 687.631 9.96375C687.414 9.74725 687.306 9.4658 687.306 9.1194C687.306 8.773 687.429 8.48433 687.674 8.2534C687.919 8.00803 688.237 7.88535 688.627 7.88535C688.973 7.88535 689.254 8.00803 689.471 8.2534C689.702 8.48433 689.817 8.73692 689.817 9.01115C689.817 9.41528 689.695 9.7256 689.449 9.9421C689.204 10.1586 688.901 10.2668 688.54 10.2668ZM688.54 16.4588C688.15 16.4588 687.847 16.3577 687.631 16.1556C687.414 15.9391 687.306 15.6577 687.306 15.3113C687.306 14.9649 687.429 14.6762 687.674 14.4453C687.919 14.1999 688.237 14.0772 688.627 14.0772C688.973 14.0772 689.254 14.1999 689.471 14.4453C689.702 14.6762 689.817 14.9288 689.817 15.203C689.817 15.6072 689.695 15.9175 689.449 16.134C689.204 16.3505 688.901 16.4588 688.54 16.4588ZM695.713 10.2668C697.041 10.2668 698.095 10.5627 698.874 11.1545C699.654 11.7463 700.043 12.5401 700.043 13.536C700.043 14.6474 699.603 15.5278 698.723 16.1773C697.842 16.8268 696.644 17.1516 695.129 17.1516C694.335 17.1516 693.685 17.0794 693.18 16.9351C692.689 16.7907 692.357 16.6175 692.184 16.4154C692.184 16.0835 692.278 15.802 692.466 15.5711C692.653 15.7299 692.956 15.8598 693.375 15.9608C693.808 16.0618 694.328 16.1123 694.934 16.1123C695.843 16.1123 696.572 15.8958 697.12 15.4628C697.683 15.0298 697.965 14.4742 697.965 13.7958C697.965 13.1463 697.691 12.6267 697.142 12.237C696.594 11.8329 695.879 11.6308 694.999 11.6308C694.306 11.6308 693.772 11.7535 693.397 11.9988C693.094 11.97 692.891 11.8401 692.79 11.6091L693.505 6.11005C694.631 6.15335 695.886 6.175 697.272 6.175C697.719 6.175 698.023 6.11005 698.181 5.98015C698.355 5.85025 698.456 5.63375 698.484 5.33065C698.672 5.27292 698.982 5.24405 699.415 5.24405C699.329 6.02345 699.285 6.68738 699.285 7.23585L699.307 7.7771C699.249 7.907 699.163 8.00803 699.047 8.0802C698.946 8.13793 698.788 8.1668 698.571 8.1668C696.521 8.1668 695.1 8.18845 694.306 8.23175L693.96 10.5266C694.508 10.3534 695.093 10.2668 695.713 10.2668ZM702.579 0.957349C703.965 2.96358 704.96 4.80383 705.567 6.4781C706.173 8.15237 706.476 9.92767 706.476 11.804C706.476 13.8391 706.137 15.7515 705.458 17.5412C704.795 19.331 703.799 21.1063 702.471 22.8672C702.413 22.8816 702.319 22.8888 702.189 22.8888C701.958 22.8888 701.792 22.8455 701.691 22.7589C702.716 21.1424 703.459 19.4681 703.921 17.7361C704.398 16.0185 704.636 14.0412 704.636 11.804C704.636 9.58127 704.419 7.63998 703.986 5.98015C703.553 4.30588 702.832 2.71822 701.821 1.21715C702.038 1.02952 702.29 0.942916 702.579 0.957349Z" fill="white"/>
</svg>
